<?xml version="1.0" standalone="no"?>
<!DOCTYPE svg PUBLIC "-//W3C//DTD SVG 20010904//EN"
 "http://www.w3.org/TR/2001/REC-SVG-20010904/DTD/svg10.dtd">
<svg version="1.0" xmlns="http://www.w3.org/2000/svg"
 width="1024.000000pt" height="1024.000000pt" viewBox="0 0 1024.000000 1024.000000"
 preserveAspectRatio="xMidYMid meet">
<metadata>
Created by potrace 1.11, written by Peter Selinger 2001-2013
</metadata>
<g transform="translate(0.000000,1024.000000) scale(0.100000,-0.100000)"
fill="#000000" stroke="none">
<path d="M7479 9836 c-2 -2 -53 -7 -114 -11 -60 -3 -132 -8 -160 -10 -27 -3
-75 -7 -105 -9 -95 -8 -309 -33 -350 -41 -8 -2 -51 -8 -95 -15 -174 -26 -366
-75 -705 -182 -174 -55 -394 -130 -495 -169 -123 -48 -397 -186 -525 -264
-119 -74 -157 -93 -196 -99 -20 -4 -96 12 -215 44 -236 65 -389 93 -495 92
-69 -1 -127 -14 -194 -45 -163 -75 -345 -254 -364 -359 -8 -48 28 -105 93
-146 72 -44 85 -65 101 -159 11 -59 11 -84 0 -130 -7 -32 -16 -62 -20 -68 -4
-5 -13 -28 -20 -50 -25 -79 -116 -251 -179 -340 -39 -55 -247 -314 -265 -330
-6 -5 -22 -23 -35 -40 -12 -16 -50 -61 -84 -98 -131 -147 -243 -303 -323 -454
-13 -25 -28 -51 -33 -57 -38 -49 -311 -589 -364 -721 -96 -238 -291 -881 -342
-1125 -14 -68 -89 -335 -115 -410 -41 -118 -101 -372 -124 -525 -5 -35 -16
-110 -21 -145 -6 -40 -15 -121 -20 -175 -7 -71 -15 -144 -20 -185 -3 -19 -7
-53 -9 -75 -9 -78 -18 -150 -21 -166 -2 -9 -6 -40 -9 -70 -4 -30 -9 -70 -11
-89 -2 -19 -7 -57 -10 -85 -3 -27 -7 -66 -10 -85 -4 -36 -12 -156 -20 -320 -8
-175 -23 -237 -83 -358 -63 -127 -112 -181 -210 -228 -269 -129 -431 -213
-513 -266 -212 -137 -542 -525 -662 -778 -78 -164 -151 -508 -130 -612 3 -16
19 -43 36 -60 28 -27 35 -29 79 -25 56 6 116 35 233 111 198 129 228 148 282
175 79 39 308 106 468 136 93 17 288 22 570 14 126 -4 154 8 180 78 10 26 29
69 42 96 19 39 28 47 51 47 29 0 93 -53 154 -128 25 -30 34 -34 92 -37 35 -3
88 -7 117 -9 131 -11 266 -18 424 -21 94 -2 179 -5 190 -8 11 -3 60 -12 109
-22 105 -19 275 -74 361 -116 57 -28 81 -44 175 -116 49 -38 76 -34 101 16 41
79 -6 395 -81 542 -71 139 -285 403 -421 520 -110 94 -423 319 -445 319 -3 0
-19 9 -35 21 -34 24 -219 116 -309 154 -203 85 -205 87 -140 230 46 101 424
855 474 944 25 46 46 85 46 86 0 2 26 47 58 102 57 96 96 167 202 368 116 221
134 248 224 344 334 352 557 543 826 706 113 69 98 61 397 226 664 368 695
385 1273 714 287 163 455 255 695 380 396 206 431 226 715 400 229 141 389
229 399 220 2 -3 -16 -30 -40 -61 -24 -30 -57 -76 -73 -100 -47 -72 -35 -136
45 -224 65 -72 84 -101 109 -165 13 -33 45 -103 71 -155 42 -84 48 -105 54
-185 4 -49 9 -101 10 -115 2 -14 6 -117 10 -230 10 -289 9 -281 36 -303 20
-16 36 -19 114 -15 86 4 92 5 150 45 80 55 135 109 231 223 157 190 215 268
258 351 37 69 79 216 90 310 4 31 9 67 11 80 8 40 17 201 19 319 3 201 -23
344 -89 495 -29 66 -75 184 -75 193 0 34 230 134 398 173 26 6 55 13 65 15 49
12 70 15 157 29 52 8 113 17 135 20 22 3 94 15 160 25 66 10 170 21 230 25
180 10 243 15 281 21 89 14 284 117 317 168 25 37 15 165 -21 269 -44 128
-101 197 -203 248 -35 18 -65 33 -67 34 -2 2 -7 87 -16 330 -3 61 -7 117 -10
125 -3 8 -7 31 -10 50 -7 48 -27 103 -72 196 -121 251 -234 333 -704 509 -296
111 -449 158 -590 180 -25 4 -52 9 -60 10 -44 8 -101 15 -145 20 -27 2 -72 7
-100 10 -27 2 -90 7 -140 10 -49 3 -112 8 -140 11 -65 6 -461 14 -466 10z"/>
</g>
</svg>
